<svg width="74" height="43" viewBox="0 0 74 43" fill="none" xmlns="http://www.w3.org/2000/svg">
<path fill-rule="evenodd" clip-rule="evenodd" d="M28.3464 0C25.7571 0.499622 20.8056 0.772224 19.0794 0.772224V1.36281C21.2598 1.36281 21.5324 1.49906 21.5778 2.45302C21.6687 4.08844 21.7596 5.99636 21.7596 8.9492V19.8516C21.7596 22.7892 21.7293 25.3634 21.7037 27.5391V27.5393C21.6849 29.1318 21.6687 30.5108 21.6687 31.6627L21.8958 31.7989L21.8977 31.7983C22.9878 31.435 24.486 30.9356 25.9389 30.5271C27.2108 31.2085 29.5276 31.7081 31.5719 31.7081C38.4768 31.7081 42.2472 28.0285 42.2472 20.4422C42.2472 18.1708 41.7475 16.0358 40.8391 14.4912C39.6579 12.5379 37.7045 11.4476 35.1152 11.4022C32.3895 11.4022 30.4362 12.4016 28.0739 14.4005V11.5385C28.0739 7.26134 28.2084 3.83642 28.2885 1.79957C28.3223 0.937579 28.3464 0.324183 28.3464 0ZM9.90306 31.7536C14.2641 31.7536 17.1715 29.7093 18.3072 25.5755L17.7166 25.2575C16.6717 28.392 14.9909 30.0728 12.2199 30.0728C10.0848 30.0728 8.58573 29.1642 7.63177 26.6203C7.08657 25.212 6.81407 22.9861 6.81407 21.0782C6.81407 15.6269 8.17688 12.0382 10.63 12.0382C12.4471 12.0382 13.1739 13.401 13.1739 15.5814C13.1739 16.0369 13.1199 16.4113 13.0534 16.8713C13.0337 17.0078 13.013 17.1518 12.9922 17.3077C12.8559 17.9891 12.9922 18.3979 13.401 18.716C13.8099 18.9885 14.355 19.0794 14.8092 19.0794C16.172 19.0794 18.08 18.3979 18.08 16.2629C18.08 12.8104 14.5821 11.4022 10.7208 11.4022C3.58872 11.4022 0 15.8995 0 21.9868C0 24.8032 0.545106 27.0291 1.90792 28.6646C3.54333 30.7087 5.72376 31.7536 9.90306 31.7536ZM31.3446 31.0722C34.252 31.0722 35.5693 27.8469 35.5693 21.0782C35.5693 18.6705 35.2514 16.5355 34.5245 15.1273C33.9794 13.9915 33.0709 13.2648 31.7536 13.2648C30.0727 13.2648 28.8916 14.355 28.2555 15.6269C27.9376 16.2629 27.8921 16.9443 27.8921 22.759C27.8921 28.4373 28.0739 28.7554 28.4372 29.3914C29.2096 30.5725 30.2089 31.0722 31.2992 31.0722H31.3446ZM46.8802 36.7961C46.8802 35.3878 47.6524 34.7972 48.6518 34.3883L48.4701 34.025C47.6524 34.1612 46.2896 34.6154 45.5628 35.0244C44.2908 35.7511 43.7004 36.4326 43.7004 37.4774C43.7004 40.3393 46.1079 42.3835 52.3315 42.3835C57.9645 42.3835 64.8693 39.5217 64.8693 32.9801C64.8693 31.3902 64.1426 29.7093 63.0068 28.71C61.7349 27.6197 60.5084 27.3925 59.2818 27.3925C56.1733 27.3925 53.7407 27.4526 51.6732 27.5037C50.1451 27.5414 48.8164 27.5743 47.5616 27.5743C46.2896 27.5743 45.2903 26.8929 45.2903 25.7117C45.2903 24.7124 45.9716 23.5312 47.0165 23.2133C47.8796 24.1218 50.0147 25.0759 53.2854 25.0759C57.1468 25.0759 61.8712 23.4858 61.8712 18.1253C61.8712 16.0358 61.0536 14.3096 59.2818 12.9013C59.6906 12.765 60.145 12.7196 60.7355 12.7196C61.6441 12.7196 62.8706 13.1284 63.4611 13.6281C63.9153 13.4464 64.8693 12.2198 65.0057 11.5385C65.0057 10.9479 64.1426 10.0393 63.0068 10.0393C61.6441 10.0393 59.8724 11.5385 58.7821 12.4924C58.3279 12.1745 56.5563 11.4022 53.6943 11.4022C49.9692 11.4022 45.1994 13.083 45.1994 18.6252C45.1994 20.1696 45.6537 21.5778 46.4714 22.5772C45.2448 23.6676 43.5186 25.3483 43.5186 27.9376C43.5186 29.4368 43.9729 30.5724 44.6088 31.3902C45.9716 33.1619 47.5616 33.7523 50.1056 33.7523H58.6912C60.3266 33.7523 61.4623 34.6609 61.4623 36.1145C61.4623 38.6585 59.5089 41.2933 53.8306 41.2933C49.2425 41.2933 46.8802 39.0673 46.8802 36.7961ZM53.4216 12.0836C52.1496 12.0836 51.1957 13.2648 51.1957 17.9891C51.1957 21.6233 52.0134 24.4398 53.6488 24.4398C55.3296 24.4398 55.7837 21.9868 55.7837 18.3979C55.7837 15.8087 55.4204 12.0836 53.467 12.0836H53.4216ZM74 28.2102C74 26.1206 72.4554 24.6215 70.5929 24.6215H70.5475C68.685 24.6215 67.095 26.166 67.095 28.2102C67.095 30.2999 68.6395 31.7536 70.5475 31.7536C72.4554 31.7536 74 30.2545 74 28.2102Z" fill="white"/>
</svg>
