<svg width="48" height="24" viewBox="0 0 48 24" fill="none" xmlns="http://www.w3.org/2000/svg">
<path fill-rule="evenodd" clip-rule="evenodd" d="M0 5C0 4.44772 0.447715 4 1 4H23C23.5523 4 24 4.44772 24 5C24 5.55228 23.5523 6 23 6H1C0.447716 6 0 5.55228 0 5ZM0 12C0 11.4477 0.447715 11 1 11H23C23.5523 11 24 11.4477 24 12C24 12.5523 23.5523 13 23 13H1C0.447716 13 0 12.5523 0 12ZM1 18C0.447715 18 0 18.4477 0 19C0 19.5523 0.447716 20 1 20H23C23.5523 20 24 19.5523 24 19C24 18.4477 23.5523 18 23 18H1Z" fill="white"/>
<path fill-rule="evenodd" clip-rule="evenodd" d="M28.7071 3.29289C28.3166 2.90237 27.6834 2.90237 27.2929 3.29289C26.9024 3.68342 26.9024 4.31658 27.2929 4.70711L34.3641 11.7783L27.293 18.8494C26.9025 19.2399 26.9025 19.8731 27.293 20.2636C27.6836 20.6541 28.3167 20.6541 28.7073 20.2636L35.7783 13.1925L42.8492 20.2635C43.2398 20.654 43.8729 20.654 44.2635 20.2635C44.654 19.8729 44.654 19.2398 44.2635 18.8492L37.1925 11.7783L44.2636 4.70725C44.6541 4.31672 44.6541 3.68356 44.2636 3.29303C43.8731 2.90251 43.2399 2.90251 42.8494 3.29303L35.7783 10.3641L28.7071 3.29289Z" fill="white"/>
</svg>
