<svg width="854" height="817" viewBox="0 0 854 817" fill="none" xmlns="http://www.w3.org/2000/svg">
<path d="M353.429 817C284.186 817 222.636 803.241 168.78 775.723C114.925 748.205 73.0901 709.3 43.277 659.009C14.4257 608.717 0 550.36 0 483.937C0 393.792 21.6385 311.713 64.9155 237.699C108.193 163.684 167.819 105.802 243.794 64.0505C319.769 21.35 404.4 0 497.686 0C566.929 0 628.479 14.2334 682.334 42.7004C737.152 70.2185 779.467 109.123 809.28 159.415C839.093 209.706 854 268.063 854 334.486C854 425.58 831.881 508.134 787.642 582.148C744.365 655.213 684.258 712.621 607.321 754.373C531.346 796.124 446.715 817 353.429 817Z" fill="white"/>
</svg>
