<svg width="66" height="32" viewBox="0 0 66 32" fill="none" xmlns="http://www.w3.org/2000/svg" xmlns:xlink="http://www.w3.org/1999/xlink">
<path d="M49.0301 4.08402C47.7533 4.14422 46.8814 4.34802 46.1191 4.64742C45.3303 4.95492 44.6616 5.36742 43.9963 6.03512C43.3311 6.70282 42.9213 7.37192 42.6161 8.16212C42.3207 8.92592 42.1205 9.79862 42.0641 11.0761C42.0077 12.3536 41.9952 12.7643 42.0015 16.0231C42.0077 19.2817 42.0221 19.6902 42.084 20.9704C42.145 22.2469 42.348 23.1186 42.6475 23.8811C42.9555 24.67 43.3675 25.3384 44.0355 26.0039C44.7034 26.6694 45.372 27.0782 46.164 27.3839C46.9272 27.6789 47.8001 27.88 49.0774 27.9359C50.3547 27.9919 50.7658 28.0049 54.0236 27.9986C57.2814 27.9924 57.6916 27.9779 58.9714 27.9172C60.2514 27.8565 61.1184 27.652 61.8812 27.3539C62.6701 27.0453 63.339 26.6339 64.004 25.9658C64.669 25.2976 65.0785 24.628 65.3835 23.8374C65.6792 23.0742 65.8801 22.2014 65.9355 20.925C65.9915 19.6441 66.0047 19.2352 65.9985 15.977C65.9922 12.7187 65.9775 12.3102 65.9168 11.0305C65.8561 9.75082 65.6528 8.88182 65.3535 8.11882C65.0451 7.32992 64.6335 6.66202 63.9659 5.99602C63.2982 5.33002 62.628 4.92082 61.8378 4.61652C61.074 4.32102 60.2017 4.11972 58.9244 4.06452C57.6471 4.00932 57.236 3.99502 53.977 4.00142C50.718 4.00762 50.31 4.02162 49.0301 4.08402ZM49.1703 25.7771C48.0003 25.7262 47.365 25.5318 46.9416 25.3691C46.381 25.1531 45.9816 24.892 45.5597 24.4741C45.1377 24.0563 44.8786 23.6555 44.6597 23.0961C44.4953 22.6727 44.2973 22.0381 44.2426 20.8681C44.1831 19.6036 44.1706 19.2239 44.1636 16.0201C44.1566 12.8164 44.1689 12.4371 44.2243 11.1721C44.2743 10.0031 44.4699 9.36712 44.6323 8.94392C44.8483 8.38262 45.1085 7.98392 45.5273 7.56232C45.9461 7.14062 46.3457 6.88092 46.9056 6.66202C47.3286 6.49692 47.9631 6.30062 49.1326 6.24492C50.3981 6.18492 50.7773 6.17292 53.9806 6.16592C57.1839 6.15892 57.5641 6.17092 58.8301 6.22672C59.9991 6.27752 60.6354 6.47122 61.0581 6.63472C61.6189 6.85072 62.0181 7.11012 62.4397 7.52972C62.8614 7.94912 63.1213 8.34732 63.3402 8.90842C63.5055 9.33012 63.7019 9.96442 63.7571 11.1347C63.8173 12.4002 63.831 12.7797 63.8367 15.9827C63.8425 19.1857 63.8312 19.5661 63.7757 20.8307C63.7247 22.0007 63.5307 22.6362 63.3677 23.0601C63.1517 23.6205 62.8914 24.0201 62.4723 24.4415C62.0533 24.863 61.6542 25.1226 61.094 25.3415C60.6716 25.5064 60.0363 25.7032 58.8678 25.7589C57.6022 25.8184 57.223 25.8309 54.0185 25.8379C50.814 25.8449 50.4358 25.8319 49.1703 25.7771ZM58.953 9.58642C58.9535 9.87125 59.0384 10.1495 59.197 10.3861C59.3557 10.6226 59.5809 10.8068 59.8443 10.9154C60.1076 11.0239 60.3972 11.0519 60.6765 10.9958C60.9557 10.9398 61.2121 10.8021 61.4131 10.6003C61.6141 10.3986 61.7508 10.1417 61.8058 9.86222C61.8609 9.58276 61.8318 9.29325 61.7223 9.03032C61.6128 8.76739 61.4277 8.54284 61.1906 8.38508C60.9534 8.22731 60.6748 8.14342 60.39 8.14402C60.0082 8.14481 59.6423 8.29721 59.3728 8.56769C59.1034 8.83818 58.9523 9.20461 58.953 9.58642ZM47.8385 16.012C47.8452 19.4152 50.6091 22.1677 54.0115 22.1613C57.4141 22.1548 60.1685 19.3912 60.1621 15.988C60.1556 12.5848 57.3911 9.83152 53.9881 9.83822C50.5851 9.84492 47.8321 12.6092 47.8385 16.012ZM50 16.0077C49.9984 15.2166 50.2315 14.4428 50.6697 13.7841C51.1079 13.1255 51.7316 12.6115 52.4619 12.3073C53.1922 12.0031 53.9963 11.9223 54.7726 12.0751C55.5488 12.2279 56.2623 12.6075 56.8228 13.1658C57.3833 13.7241 57.7657 14.436 57.9216 15.2117C58.0774 15.9873 57.9998 16.7917 57.6985 17.5232C57.3972 18.2547 56.8858 18.8804 56.2289 19.3213C55.572 19.7621 54.7991 19.9982 54.008 19.9998C53.4827 20.0009 52.9623 19.8985 52.4766 19.6985C51.9908 19.4985 51.5492 19.2047 51.1771 18.834C50.8049 18.4633 50.5094 18.0229 50.3074 17.5379C50.1054 17.053 50.001 16.533 50 16.0077Z" fill="white"/>
<rect x="1.5" y="1.5" width="29" height="29" rx="14.5" fill="url(#pattern0_243_406)" stroke="#15241E" stroke-width="3"/>
<mask id="mask0_243_406" style="mask-type:alpha" maskUnits="userSpaceOnUse" x="0" y="0" width="32" height="32">
<rect x="0.75" y="0.75" width="30.5" height="30.5" rx="15.25" stroke="#FF0000" stroke-width="1.5"/>
</mask>
<g mask="url(#mask0_243_406)">
<rect width="32" height="32" fill="url(#paint0_radial_243_406)"/>
</g>
<defs>
<pattern id="pattern0_243_406" patternContentUnits="objectBoundingBox" width="1" height="1">
<use xlink:href="#image0_243_406" transform="scale(0.003125)"/>
</pattern>
<radialGradient id="paint0_radial_243_406" cx="0" cy="0" r="1" gradientUnits="userSpaceOnUse" gradientTransform="translate(7.02306e-07 9) rotate(25.1148) scale(35.3412 37.1759)">
<stop stop-color="#F3705D"/>
<stop offset="1" stop-color="#AD29A6"/>
</radialGradient>
</defs>
</svg>
