<svg width="157" height="18" viewBox="0 0 157 18" fill="none" xmlns="http://www.w3.org/2000/svg">
<path d="M71.4418 4.23529C72.9166 4.23529 74.0637 4.62032 74.8831 5.39037C75.7188 6.14439 76.1367 7.20321 76.1367 8.56685C76.1367 8.98396 76.0875 9.4492 75.9892 9.96257L74.5635 17.8075H70.3848L71.7122 10.516C71.7449 10.3556 71.7613 10.139 71.7613 9.86631C71.7613 9.19251 71.5647 8.67914 71.1714 8.3262C70.7945 7.97326 70.2619 7.79679 69.5736 7.79679C68.7543 7.79679 68.066 8.03743 67.5088 8.51872C66.9517 8.98396 66.5994 9.64973 66.4519 10.516L65.1245 17.8075H60.9458L62.2731 10.516C62.3059 10.3556 62.3223 10.139 62.3223 9.86631C62.3223 9.19251 62.1257 8.67914 61.7324 8.3262C61.3555 7.97326 60.8229 7.79679 60.1346 7.79679C59.3153 7.79679 58.627 8.03743 58.0698 8.51872C57.5127 8.98396 57.1603 9.64973 57.0129 10.516V10.3957L55.6855 17.8075H51.0801L54.09 4.37968H58.0944L57.7994 6.08823C58.3238 5.51069 58.9547 5.0615 59.6922 4.74064C60.446 4.40374 61.2571 4.23529 62.1257 4.23529C63.1744 4.23529 64.0593 4.45187 64.7804 4.88503C65.5178 5.31818 66.0422 5.94385 66.3536 6.76203C66.9599 6.00802 67.7137 5.3984 68.615 4.93316C69.5163 4.46791 70.4585 4.23529 71.4418 4.23529Z" fill="white"/>
<path d="M76.4217 11.0695C76.6675 9.68984 77.1509 8.47861 77.8719 7.43583C78.593 6.39305 79.4615 5.59091 80.4775 5.02941C81.4935 4.46791 82.5669 4.18717 83.6976 4.18717C84.6644 4.18717 85.4756 4.37968 86.1311 4.76471C86.7866 5.14973 87.2618 5.65508 87.5568 6.28075L87.9009 4.37968H92.1042L89.6707 17.8075H85.4674L85.8361 15.9064C85.3117 16.5321 84.648 17.0374 83.8451 17.4225C83.0421 17.8075 82.1572 18 81.1903 18C80.2235 18 79.3632 17.7834 78.6094 17.3503C77.8719 16.9171 77.2984 16.3075 76.8887 15.5214C76.479 14.7193 76.2742 13.7808 76.2742 12.7059C76.2742 12.1925 76.3234 11.6471 76.4217 11.0695ZM86.6964 11.0936C86.7456 10.8048 86.7702 10.5401 86.7702 10.2995C86.7702 9.51337 86.5326 8.89572 86.0573 8.44652C85.5985 7.99733 85.0086 7.77273 84.2875 7.77273C83.4518 7.77273 82.6898 8.06952 82.0015 8.6631C81.3133 9.24064 80.879 10.0428 80.6987 11.0695C80.6496 11.3583 80.625 11.623 80.625 11.8636C80.625 12.6497 80.8544 13.2754 81.3133 13.7406C81.7885 14.1898 82.3784 14.4144 83.0831 14.4144C83.9188 14.4144 84.6808 14.1176 85.3691 13.5241C86.0573 12.9305 86.4998 12.1203 86.6964 11.0936Z" fill="white"/>
<path d="M91.6301 11.0695C91.8759 9.68984 92.3593 8.47861 93.0803 7.43583C93.8014 6.39305 94.6699 5.59091 95.6859 5.02941C96.7019 4.46791 97.7753 4.18717 98.906 4.18717C99.8073 4.18717 100.594 4.37166 101.266 4.74064C101.954 5.10963 102.454 5.60695 102.765 6.23262L103.896 0H108.099L104.879 17.8075H100.676L101.02 15.8824C100.496 16.5241 99.84 17.0374 99.0535 17.4225C98.2669 17.8075 97.3902 18 96.4233 18C95.4565 18 94.5961 17.7834 93.8423 17.3503C93.1049 16.9171 92.5232 16.2995 92.0971 15.4973C91.6874 14.6952 91.4826 13.7567 91.4826 12.6818C91.4826 12.1845 91.5317 11.6471 91.6301 11.0695ZM101.905 11.0936C101.954 10.8048 101.979 10.5401 101.979 10.2995C101.979 9.51337 101.741 8.89572 101.266 8.44652C100.807 7.99733 100.217 7.77273 99.4959 7.77273C98.6602 7.77273 97.8982 8.06952 97.2099 8.6631C96.5216 9.24064 96.0874 10.0428 95.9071 11.0695C95.858 11.3583 95.8334 11.623 95.8334 11.8636C95.8334 12.6497 96.0628 13.2754 96.5216 13.7406C96.9969 14.1898 97.5868 14.4144 98.2915 14.4144C99.1272 14.4144 99.8892 14.1176 100.577 13.5241C101.266 12.9305 101.708 12.1203 101.905 11.0936Z" fill="white"/>
<path d="M106.838 11.0695C107.084 9.68984 107.568 8.47861 108.289 7.43583C109.01 6.39305 109.878 5.59091 110.894 5.02941C111.91 4.46791 112.984 4.18717 114.114 4.18717C115.016 4.18717 115.802 4.37166 116.474 4.74064C117.162 5.10963 117.662 5.60695 117.974 6.23262L119.104 0H123.308L120.087 17.8075H115.884L116.228 15.8824C115.704 16.5241 115.048 17.0374 114.262 17.4225C113.475 17.8075 112.599 18 111.632 18C110.665 18 109.805 17.7834 109.051 17.3503C108.313 16.9171 107.732 16.2995 107.305 15.4973C106.896 14.6952 106.691 13.7567 106.691 12.6818C106.691 12.1845 106.74 11.6471 106.838 11.0695ZM117.113 11.0936C117.162 10.8048 117.187 10.5401 117.187 10.2995C117.187 9.51337 116.949 8.89572 116.474 8.44652C116.015 7.99733 115.425 7.77273 114.704 7.77273C113.869 7.77273 113.107 8.06952 112.418 8.6631C111.73 9.24064 111.296 10.0428 111.116 11.0695C111.066 11.3583 111.042 11.623 111.042 11.8636C111.042 12.6497 111.271 13.2754 111.73 13.7406C112.205 14.1898 112.795 14.4144 113.5 14.4144C114.336 14.4144 115.098 14.1176 115.786 13.5241C116.474 12.9305 116.917 12.1203 117.113 11.0936Z" fill="white"/>
<path d="M130.208 4.18717C131.977 4.18717 133.379 4.66043 134.411 5.60695C135.46 6.53743 135.984 7.81283 135.984 9.43316C135.984 9.96257 135.943 10.4358 135.861 10.8529C135.796 11.2219 135.697 11.615 135.566 12.0321H126.054C126.037 12.1283 126.029 12.2807 126.029 12.4893C126.029 13.1952 126.226 13.7326 126.619 14.1016C127.012 14.4706 127.537 14.6551 128.192 14.6551C129.241 14.6551 130.044 14.2219 130.601 13.3556H135.075C134.485 14.7193 133.526 15.8342 132.199 16.7005C130.871 17.5668 129.38 18 127.725 18C125.955 18 124.538 17.5187 123.473 16.5562C122.424 15.5936 121.899 14.2861 121.899 12.6337C121.899 12.1364 121.949 11.623 122.047 11.0936C122.293 9.69786 122.801 8.47861 123.571 7.43583C124.341 6.39305 125.3 5.59091 126.447 5.02941C127.594 4.46791 128.848 4.18717 130.208 4.18717ZM131.732 9.9385C131.764 9.7139 131.781 9.5615 131.781 9.48128C131.781 8.83957 131.576 8.35027 131.166 8.01337C130.757 7.66043 130.216 7.48396 129.544 7.48396C128.823 7.48396 128.184 7.70054 127.627 8.13369C127.086 8.5508 126.693 9.15241 126.447 9.9385H131.732Z" fill="white"/>
<path d="M141.495 6.81016C142.135 6.00802 142.864 5.38235 143.683 4.93316C144.519 4.46791 145.387 4.23529 146.289 4.23529L145.502 8.59091H144.347C143.298 8.59091 142.47 8.81551 141.864 9.26471C141.258 9.69786 140.856 10.4679 140.66 11.5749L139.529 17.8075H135.326L137.735 4.37968H141.938L141.495 6.81016Z" fill="white"/>
<path d="M150.068 18C148.986 18 148.011 17.8316 147.142 17.4947C146.29 17.1578 145.618 16.6925 145.127 16.0989C144.635 15.4893 144.389 14.7914 144.389 14.0053C144.389 13.893 144.406 13.6925 144.439 13.4037H148.494C148.462 13.9011 148.609 14.3021 148.937 14.607C149.281 14.8957 149.764 15.0401 150.387 15.0401C150.912 15.0401 151.346 14.9439 151.69 14.7513C152.034 14.5588 152.206 14.2861 152.206 13.9332C152.206 13.5963 152.018 13.3316 151.641 13.139C151.28 12.9305 150.674 12.6818 149.822 12.393C148.937 12.1043 148.191 11.8235 147.585 11.5508C146.995 11.262 146.487 10.8529 146.061 10.3235C145.635 9.79412 145.422 9.12834 145.422 8.3262C145.422 7.54011 145.659 6.83422 146.135 6.20856C146.61 5.56684 147.274 5.06952 148.126 4.71658C148.994 4.36364 149.994 4.18717 151.125 4.18717C152.255 4.18717 153.239 4.37166 154.074 4.74064C154.91 5.09358 155.557 5.59091 156.016 6.23262C156.475 6.87433 156.704 7.59626 156.704 8.3984L156.68 8.75936H152.87C152.903 8.27808 152.755 7.89305 152.427 7.60428C152.1 7.31551 151.633 7.17112 151.026 7.17112C150.551 7.17112 150.158 7.26738 149.846 7.45989C149.551 7.65241 149.404 7.91711 149.404 8.25401C149.404 8.60695 149.601 8.90374 149.994 9.14439C150.404 9.36899 151.034 9.62567 151.887 9.91444C152.771 10.2032 153.501 10.492 154.074 10.7807C154.664 11.0535 155.164 11.4465 155.574 11.9599C156 12.4572 156.213 13.0829 156.213 13.8369C156.213 14.7032 155.942 15.4492 155.402 16.0749C154.877 16.7005 154.148 17.1818 153.214 17.5187C152.296 17.8396 151.247 18 150.068 18Z" fill="white"/>
<path d="M6.31726 18C5.12099 18 4.05583 17.7995 3.12176 17.3984C2.18769 16.9973 1.45027 16.4519 0.909489 15.762C0.368712 15.0562 0.0655487 14.2701 0 13.4037H4.15415C4.20331 13.869 4.42454 14.246 4.81783 14.5348C5.21112 14.8235 5.69455 14.9679 6.2681 14.9679C6.79249 14.9679 7.19397 14.8717 7.47255 14.6791C7.76752 14.4706 7.91501 14.2059 7.91501 13.885C7.91501 13.5 7.71017 13.2193 7.30049 13.0428C6.89081 12.8503 6.22713 12.6417 5.30945 12.4171C4.32622 12.1925 3.50686 11.9599 2.85137 11.7193C2.19588 11.4626 1.63052 11.0695 1.1553 10.5401C0.680068 9.99465 0.442454 9.26471 0.442454 8.35027C0.442454 7.58021 0.655487 6.88235 1.08155 6.25668C1.52401 5.61497 2.16311 5.10963 2.99885 4.74064C3.85099 4.37166 4.8588 4.18717 6.02229 4.18717C7.74294 4.18717 9.09488 4.60428 10.0781 5.4385C11.0777 6.27273 11.6513 7.37968 11.7988 8.75936H7.91501C7.84946 8.29412 7.63643 7.92513 7.27591 7.65241C6.93178 7.37968 6.47294 7.24332 5.89939 7.24332C5.40777 7.24332 5.03086 7.33957 4.76867 7.53209C4.50647 7.70856 4.37538 7.95722 4.37538 8.27808C4.37538 8.6631 4.58022 8.95187 4.9899 9.14439C5.41596 9.3369 6.07145 9.52941 6.95636 9.72193C7.97236 9.97861 8.79992 10.2353 9.43902 10.492C10.0781 10.7326 10.6353 11.1337 11.1105 11.6952C11.6021 12.2406 11.8561 12.9786 11.8725 13.9091C11.8725 14.6952 11.6431 15.4011 11.1842 16.0267C10.7418 16.6364 10.0945 17.1176 9.24237 17.4706C8.40662 17.8235 7.43159 18 6.31726 18Z" fill="#00FFA3"/>
<path d="M17.1725 0V17.8075H12.9692V0H17.1725Z" fill="#00FFA3"/>
<path d="M24.9873 18C23.6436 18 22.4309 17.7193 21.3494 17.1578C20.2842 16.5963 19.4403 15.7941 18.8175 14.7513C18.2112 13.7086 17.9081 12.4893 17.9081 11.0936C17.9081 9.7139 18.2194 8.50267 18.8421 7.45989C19.4648 6.40107 20.317 5.59091 21.3985 5.02941C22.4801 4.46791 23.6927 4.18717 25.0365 4.18717C26.3802 4.18717 27.5929 4.46791 28.6744 5.02941C29.756 5.59091 30.6081 6.40107 31.2308 7.45989C31.8535 8.50267 32.1649 9.7139 32.1649 11.0936C32.1649 12.4733 31.8454 13.6925 31.2062 14.7513C30.5835 15.7941 29.7232 16.5963 28.6253 17.1578C27.5437 17.7193 26.3311 18 24.9873 18ZM24.9873 14.4385C25.7903 14.4385 26.4704 14.1497 27.0275 13.5722C27.6011 12.9947 27.8878 12.1684 27.8878 11.0936C27.8878 10.0187 27.6093 9.19251 27.0521 8.61497C26.5113 8.03743 25.8394 7.74866 25.0365 7.74866C24.2171 7.74866 23.537 8.03743 22.9963 8.61497C22.4555 9.17647 22.1851 10.0027 22.1851 11.0936C22.1851 12.1684 22.4473 12.9947 22.9717 13.5722C23.5125 14.1497 24.1843 14.4385 24.9873 14.4385Z" fill="#00FFA3"/>
<path d="M52.41 4.37968L49.3 17.8075H44.2517L42.0886 9.09626L39.8518 17.8075H35.2306L31.4943 4.37968H35.6976L37.6395 13.9813L39.9501 4.37968H44.3992L46.7344 13.9332L48.6517 4.37968H52.41Z" fill="#00FFA3"/>
</svg>
