<?xml version="1.0" standalone="no"?>
<!DOCTYPE svg PUBLIC "-//W3C//DTD SVG 20010904//EN"
 "http://www.w3.org/TR/2001/REC-SVG-20010904/DTD/svg10.dtd">
<svg version="1.0" xmlns="http://www.w3.org/2000/svg"
 width="700.000000pt" height="700.000000pt" viewBox="0 0 700.000000 700.000000"
 preserveAspectRatio="xMidYMid meet">
<metadata>
Created by potrace 1.14, written by Peter Selinger 2001-2017
</metadata>
<g transform="translate(0.000000,700.000000) scale(0.100000,-0.100000)"
fill="#000000" stroke="none">
<path d="M0 3500 l0 -3500 3500 0 3500 0 0 3500 0 3500 -3500 0 -3500 0 0
-3500z m2956 1558 c-3 -40 -9 -304 -12 -586 l-7 -513 89 66 c152 114 274 162
439 172 434 26 679 -337 614 -914 -28 -250 -128 -452 -282 -569 -136 -103
-291 -152 -510 -161 -191 -8 -331 13 -487 72 l-46 18 -163 -52 c-90 -29 -165
-50 -167 -48 -3 2 -5 494 -5 1093 0 599 -3 1145 -8 1213 -9 152 -12 156 -132
167 -74 6 -80 8 -77 28 3 20 10 21 171 28 167 6 451 32 530 48 23 4 46 8 51 9
5 1 6 -31 2 -71z m2900 -767 c56 -26 87 -67 81 -108 -6 -35 -50 -104 -90 -142
l-26 -23 -33 20 c-51 31 -135 52 -209 52 -103 0 -108 -5 -56 -55 133 -127 188
-302 154 -491 -20 -112 -59 -186 -137 -264 -76 -76 -150 -118 -275 -156 -129
-38 -356 -45 -498 -16 -100 21 -207 64 -263 107 -30 23 -31 23 -60 6 -117 -73
-140 -241 -42 -305 50 -33 105 -35 599 -24 536 12 576 10 683 -40 232 -109
314 -423 182 -695 -72 -148 -189 -258 -371 -347 -177 -87 -378 -130 -606 -130
-261 0 -468 56 -579 156 -86 78 -126 235 -82 321 41 80 178 158 343 197 49 11
42 -19 -11 -52 -61 -38 -90 -91 -90 -165 0 -154 110 -272 315 -337 105 -34
334 -39 468 -12 125 26 213 67 282 133 75 71 107 139 113 240 4 70 2 82 -21
121 -15 26 -42 53 -69 68 l-43 25 -470 6 c-450 5 -473 6 -537 27 -259 86 -385
380 -271 634 31 69 94 154 154 208 l40 35 -39 76 c-48 92 -67 191 -59 304 20
257 176 431 453 506 63 18 110 22 234 23 167 1 266 -15 365 -59 l51 -22 72 58
c160 130 255 162 348 120z m-4081 -120 c154 -41 260 -113 313 -216 23 -43 27
-62 27 -142 0 -85 -2 -94 -30 -134 -43 -62 -110 -93 -205 -97 -144 -7 -186 33
-168 163 6 39 8 111 5 161 -3 75 -9 100 -31 140 -34 61 -62 82 -130 96 -46 10
-60 9 -101 -7 -124 -47 -199 -201 -236 -479 -17 -134 -6 -457 19 -575 49 -220
159 -359 310 -390 134 -28 262 1 364 81 48 38 128 157 157 236 13 34 27 62 30
62 4 0 15 -6 25 -13 16 -12 16 -15 1 -62 -54 -160 -179 -313 -307 -374 -118
-56 -205 -73 -368 -74 -165 -1 -261 13 -372 53 -133 48 -235 131 -311 252 -84
134 -112 256 -111 488 1 144 4 177 27 262 47 178 151 340 275 431 102 76 249
133 398 157 97 15 327 5 419 -19z m4731 -1070 c58 -26 106 -72 134 -128 21
-41 25 -62 25 -143 0 -104 -9 -130 -67 -195 -115 -132 -340 -116 -437 32 -101
153 -32 379 135 438 57 20 161 18 210 -4z"/>
<path d="M3143 4032 c-90 -32 -151 -91 -195 -188 -21 -47 -22 -64 -26 -409 -5
-420 6 -622 36 -682 27 -53 98 -116 155 -138 56 -21 155 -17 204 9 151 78 225
328 226 761 1 270 -32 442 -106 551 -65 98 -182 136 -294 96z"/>
<path d="M4910 4102 c-63 -62 -90 -190 -90 -427 0 -253 38 -414 115 -492 37
-37 48 -43 85 -43 36 0 48 6 80 38 69 68 96 226 87 506 -9 319 -66 456 -190
456 -44 0 -54 -4 -87 -38z"/>
</g>
</svg>
